HIERARCHY
ROOT Hips
{
 OFFSET 0.000000 0.000000 0.000000
 CHANNELS 6 Xposition Yposition Zposition Yrotation Xrotation Zrotation
 JOINT Chest
 {
  OFFSET 0.000000 9.585900 0.002600
  CHANNELS 3 Yrotation Xrotation Zrotation
  JOINT Chest2
  {
   OFFSET 0.000000 9.601200 -0.005300
   CHANNELS 3 Yrotation Xrotation Zrotation
   JOINT Chest3
   {
    OFFSET 0.000000 9.561800 0.000000
    CHANNELS 3 Yrotation Xrotation Zrotation
    JOINT Chest4
    {
     OFFSET 0.000000 9.552100 0.000000
     CHANNELS 3 Yrotation Xrotation Zrotation
     JOINT Neck
     {
      OFFSET 0.000000 14.453000 0.000000
      CHANNELS 3 Yrotation Xrotation Zrotation
      JOINT Head
      {
       OFFSET 0.000000 8.936500 -0.011300
       CHANNELS 3 Yrotation Xrotation Zrotation
       End Site
       {
        OFFSET 0.000000 17.073600 -0.006000
       }
      }
     }
     JOINT RightCollar
     {
      OFFSET -2.921100 9.558500 0.000000
      CHANNELS 3 Yrotation Xrotation Zrotation
      JOINT RightShoulder
      {
       OFFSET -13.519700 0.000000 0.000000
       CHANNELS 3 Yrotation Xrotation Zrotation
       JOINT RightElbow
       {
        OFFSET 0.000000 -29.696600 0.000000
        CHANNELS 3 Yrotation Xrotation Zrotation
        JOINT RightWrist
        {
         OFFSET 0.000000 -24.004700 0.000000
         CHANNELS 3 Yrotation Xrotation Zrotation
         End Site
         {
          OFFSET 0.000000 -17.728500 0.000000
         }
        }
       }
      }
     }
     JOINT LeftCollar
     {
      OFFSET 2.921100 9.558500 0.000000
      CHANNELS 3 Yrotation Xrotation Zrotation
      JOINT LeftShoulder
      {
       OFFSET 13.519700 0.000000 0.000000
       CHANNELS 3 Yrotation Xrotation Zrotation
       JOINT LeftElbow
       {
        OFFSET 0.000000 -29.696600 0.000000
        CHANNELS 3 Yrotation Xrotation Zrotation
        JOINT LeftWrist
        {
         OFFSET 0.000000 -24.004700 0.000000
         CHANNELS 3 Yrotation Xrotation Zrotation
         End Site
         {
          OFFSET 0.000000 -17.728500 0.000000
         }
        }
       }
      }
     }
    }
   }
  }
 }
 JOINT RightHip
 {
  OFFSET -7.771700 -0.012900 -0.001300
  CHANNELS 3 Yrotation Xrotation Zrotation
  JOINT RightKnee
  {
   OFFSET 0.000000 -40.869800 0.001200
   CHANNELS 3 Yrotation Xrotation Zrotation
   JOINT RightAnkle
   {
    OFFSET 0.000000 -39.717900 0.002100
    CHANNELS 3 Yrotation Xrotation Zrotation
    JOINT RightToe
    {
     OFFSET 0.000000 -4.965400 11.033500
     CHANNELS 3 Yrotation Xrotation Zrotation
     End Site
     {
      OFFSET 0.000000 -1.423100 5.872300
     }
    }
   }
  }
 }
 JOINT LeftHip
 {
  OFFSET 7.771700 -0.012900 -0.001300
  CHANNELS 3 Yrotation Xrotation Zrotation
  JOINT LeftKnee
  {
   OFFSET 0.000000 -40.869800 0.001200
   CHANNELS 3 Yrotation Xrotation Zrotation
   JOINT LeftAnkle
   {
    OFFSET 0.000000 -39.717900 0.002100
    CHANNELS 3 Yrotation Xrotation Zrotation
    JOINT LeftToe
    {
     OFFSET 0.000000 -4.965400 11.033500
     CHANNELS 3 Yrotation Xrotation Zrotation
     End Site
     {
      OFFSET 0.000000 -1.423100 5.872300
     }
    }
   }
  }
 }
}
MOTION
Frames: 12
Frame Time: 0.008333
10.096502 50.131800 48.557497 176.247333 -32.324729 -6.432596 6.159670 17.979957 7.445056 0.676173 2.251383 0.689160 1.066589 3.710428 1.114036 5.305839 15.622730 5.428876 -2.513916 18.356236 1.572363 -5.020133 -1.471203 3.752132 -0.169023 -2.682282 -5.085259 -1.464333 -3.413868 -4.375549 165.199037 -62.979206 -171.779613 0.882907 -2.971097 12.326032 -11.268297 -3.377615 0.035704 8.494268 -5.831267 5.950186 -147.636904 -66.325287 153.414244 26.661029 -9.077428 -22.339695 2.447069 -48.300120 6.414756 -117.568917 83.868913 -106.834612 -2.127400 -12.801926 -0.926041 -0.174772 1.035803 -0.095418 -10.295105 -51.855594 14.153511 -148.349861 81.239857 -156.389027 1.094770 -15.287666 7.488448 -0.429351 -0.841376 -0.140779
10.098963 50.133313 48.555058 176.251362 -32.322561 -6.433794 6.182723 17.967641 7.467662 0.673464 2.253668 0.685345 1.074606 3.707482 1.121601 5.280904 15.628041 5.419835 -2.450315 18.433611 1.623245 -5.060052 -1.411087 3.785079 -0.161469 -2.626394 -5.017829 -1.320335 -3.536733 -4.226938 162.416989 -62.910263 -169.370423 1.181287 -3.395462 11.784061 -11.287340 -3.279750 0.020867 8.300738 -5.952661 5.799078 -145.549005 -65.977180 151.737676 26.344879 -9.735034 -20.479884 2.428432 -48.300710 6.415618 -117.672786 83.882182 -106.942478 -2.077967 -12.807485 -0.950200 -0.196023 1.034132 -0.089332 -10.272124 -51.859125 14.152935 -148.319817 81.233280 -156.363793 1.081489 -15.296353 7.502118 -0.428777 -0.836398 -0.140985
10.099760 50.134245 48.552781 176.250807 -32.318881 -6.424689 6.203845 17.956320 7.477313 0.677266 2.255685 0.683080 1.073591 3.705522 1.125970 5.287668 15.626030 5.425326 -2.443854 18.496681 1.652813 -5.067703 -1.338156 3.830557 -0.179996 -2.559543 -4.957401 -1.176349 -3.661346 -4.068001 159.885788 -62.890463 -167.156864 1.484573 -3.710091 11.228771 -11.332224 -3.190464 0.003044 8.131109 -6.045232 5.635393 -143.709156 -65.680498 150.280664 26.053156 -10.317952 -18.838721 2.412031 -48.302067 6.414275 -117.753144 83.893018 -107.025961 -2.087207 -12.821664 -0.952352 -0.175005 1.038029 -0.099954 -10.244384 -51.865594 14.138910 -148.289857 81.227284 -156.334751 1.066730 -15.303766 7.504873 -0.419625 -0.831100 -0.131574
10.100138 50.135729 48.549053 176.269760 -32.324492 -6.424771 6.203945 17.960002 7.477426 0.679107 2.259499 0.683477 1.075686 3.703080 1.126419 5.296926 15.625861 5.427377 -2.442468 18.542562 1.686918 -5.062389 -1.267662 3.879832 -0.203124 -2.528183 -4.920844 -1.026589 -3.747284 -3.877828 157.624998 -62.919057 -165.157532 1.765797 -3.891209 10.660088 -11.374672 -3.097519 -0.003303 7.972260 -6.121556 5.459556 -142.137369 -65.446558 149.073574 25.807747 -10.827654 -17.423937 2.384033 -48.293042 6.408169 -117.891917 83.903221 -107.163679 -2.094053 -12.829763 -0.968812 -0.237778 1.028989 -0.099474 -10.239812 -51.860533 14.122135 -148.284875 81.223829 -156.334647 1.060601 -15.311883 7.506393 -0.428810 -0.827309 -0.135566
10.102408 50.137025 48.545517 176.279953 -32.333355 -6.433083 6.235846 17.967986 7.500411 0.659011 2.262321 0.681050 1.083006 3.699839 1.126922 5.299898 15.629482 5.431767 -2.444252 18.583033 1.720263 -5.056118 -1.212644 3.927614 -0.219114 -2.438356 -4.840029 -0.875032 -3.880398 -3.739087 155.595566 -62.987871 -163.352674 1.995841 -3.943656 10.077898 -11.410332 -3.004835 -0.012166 7.807737 -6.177178 5.272523 -140.931441 -65.274649 148.170116 25.586129 -11.246387 -16.189478 2.347933 -48.281515 6.423592 -117.997828 83.909249 -107.270962 -2.084758 -12.839538 -0.989616 -0.220847 1.025025 -0.094309 -10.232467 -51.854841 14.126760 -148.194831 81.208172 -156.249667 1.061553 -15.316515 7.518017 -0.428908 -0.831072 -0.146564
10.102074 50.138160 48.540675 176.311578 -32.350128 -6.437607 6.220491 17.994782 7.497480 0.659161 2.266186 0.682252 1.097911 3.718616 1.135337 5.295506 15.651306 5.440899 -2.451666 18.582670 1.741764 -5.052601 -1.167921 3.976828 -0.233723 -2.380236 -4.774278 -0.702839 -4.000293 -3.602478 153.751592 -63.085086 -161.709971 2.161717 -3.898790 9.470721 -11.436521 -2.954840 -0.030728 7.639889 -6.211481 5.080916 -140.104940 -65.170810 147.567433 25.379026 -11.566475 -15.120699 2.315461 -48.259676 6.409782 -118.224285 83.921708 -107.487094 -2.105347 -12.860327 -1.020482 -0.165017 1.018341 -0.080395 -10.223295 -51.841975 14.108911 -148.111112 81.195983 -156.184285 1.073847 -15.314398 7.540605 -0.451537 -0.837810 -0.149944
10.103305 50.137878 48.537639 176.328067 -32.360844 -6.444263 6.212636 18.011413 7.500265 0.660473 2.275695 0.685975 1.096756 3.714662 1.133245 5.294343 15.658010 5.443161 -2.445057 18.622339 1.777475 -5.053117 -1.128223 4.026343 -0.235409 -2.296605 -4.715135 -0.507029 -4.083603 -3.441775 152.061853 -63.196063 -160.206351 2.279074 -3.797207 8.826092 -11.446629 -2.864499 -0.047292 7.486747 -6.229747 4.889017 -139.565915 -65.132522 147.202949 25.204439 -11.800663 -14.237945 2.283857 -48.247510 6.416413 -118.356819 83.932902 -107.624063 -2.108257 -12.868838 -1.028917 -0.155642 1.013982 -0.081395 -10.219615 -51.835553 14.103376 -148.076549 81.184742 -156.157930 1.086495 -15.318328 7.549210 -0.445034 -0.840587 -0.154917
10.105211 50.136196 48.536016 176.328575 -32.368175 -6.446204 6.216416 18.024450 7.506217 0.659589 2.283853 0.689038 1.097988 3.712484 1.131975 5.293458 15.665146 5.445788 -2.444257 18.632088 1.791413 -5.056009 -1.060279 4.091447 -0.238767 -2.206153 -4.663373 -0.284456 -4.155840 -3.263611 150.501257 -63.316661 -158.822446 2.372187 -3.686975 8.135026 -11.457026 -2.773960 -0.065162 7.358850 -6.235574 4.696292 -139.225979 -65.139742 147.000280 25.068624 -11.976012 -13.527822 2.265151 -48.244348 6.422095 -118.519349 83.950528 -107.788164 -2.098014 -12.872663 -1.044757 -0.221501 1.006577 -0.080859 -10.206498 -51.835883 14.104157 -148.052418 81.171563 -156.137718 1.089032 -15.320320 7.562341 -0.445379 -0.844515 -0.163470
10.104964 50.133504 48.534570 176.324099 -32.377671 -6.431366 6.218721 18.041716 7.498331 0.658918 2.283816 0.687846 1.099988 3.726659 1.137700 5.290483 15.723761 5.464808 -2.443917 18.624898 1.813825 -5.061406 -1.042106 4.129156 -0.238956 -2.168988 -4.636141 -0.036215 -4.223524 -3.069083 149.033980 -63.452569 -157.529875 2.458645 -3.611934 7.398113 -11.461584 -2.748193 -0.092037 7.255299 -6.224968 4.503367 -138.988431 -65.166781 146.872606 24.968624 -12.124510 -12.970475 2.270106 -48.241172 6.416133 -118.643407 83.963686 -107.898245 -2.208107 -12.887517 -1.037104 -0.231647 1.009770 -0.092118 -10.156357 -51.840459 14.074362 -148.020899 81.155675 -156.101367 1.075124 -15.311322 7.574451 -0.443076 -0.855968 -0.168584
10.107734 50.130351 48.534159 176.320947 -32.387395 -6.434573 6.222835 18.060261 7.507652 0.660485 2.281972 0.686564 1.094319 3.768203 1.148099 5.290118 15.717389 5.461300 -2.442962 18.654437 1.846864 -5.066522 -1.029171 4.163011 -0.243958 -2.089992 -4.597549 0.229499 -4.291741 -2.859206 147.607160 -63.600040 -156.280786 2.546212 -3.592000 6.624971 -11.466914 -2.689272 -0.115057 7.165933 -6.196001 4.312384 -138.741127 -65.189776 146.732191 24.886824 -12.275279 -12.550604 2.247604 -48.244087 6.454672 -118.748156 83.966209 -108.005659 -2.280732 -12.883052 -1.056379 -0.233856 1.001181 -0.072134 -10.130843 -51.841908 14.068443 -148.018696 81.142738 -156.085240 1.055926 -15.310060 7.582348 -0.423781 -0.857435 -0.171908
10.113049 50.127322 48.534155 176.323295 -32.401087 -6.455839 6.215424 18.093564 7.526521 0.670856 2.278499 0.687946 1.094604 3.770159 1.149741 5.292676 15.740028 5.472149 -2.444693 18.653841 1.858334 -5.073244 -0.995974 4.205208 -0.254195 -2.008380 -4.564660 0.506573 -4.364728 -2.634287 146.158315 -63.744438 -155.010334 2.635939 -3.623657 5.824178 -11.471411 -2.636379 -0.140802 7.076161 -6.152979 4.122218 -138.372946 -65.188037 146.499019 24.801346 -12.449888 -12.250591 2.203992 -48.234223 6.508886 -118.775168 83.968410 -108.043004 -2.267994 -12.890504 -1.084706 -0.166750 0.999083 -0.058254 -10.129809 -51.835180 14.085933 -148.035564 81.131877 -156.096014 1.070282 -15.321658 7.589555 -0.439717 -0.851899 -0.177730
10.118468 50.125434 48.532887 176.311688 -32.430451 -6.471025 6.231112 18.128751 7.552637 0.663657 2.299531 0.692764 1.105717 3.746568 1.143070 5.298369 15.773551 5.489984 -2.451125 18.626540 1.849509 -5.080583 -0.953819 4.252736 -0.272781 -1.926101 -4.533740 0.790246 -4.440998 -2.405044 144.660862 -63.878641 -153.692309 2.730525 -3.694859 5.013694 -11.474918 -2.587119 -0.164278 6.983430 -6.099853 3.928835 -137.816326 -65.143528 146.110429 24.699081 -12.664545 -12.045873 2.179672 -48.208471 6.553624 -118.821894 83.976607 -108.092594 -2.238417 -12.900906 -1.112273 -0.148705 1.004524 -0.048440 -10.116371 -51.810942 14.106938 -148.064082 81.117667 -156.118725 1.061042 -15.336367 7.600928 -0.442713 -0.846235 -0.180336
